<?xml version="1.0" encoding="utf-8"?>
<svg version="1.1" xmlns:xlink="http://www.w3.org/1999/xlink" width="15px" height="15px" xmlns="http://www.w3.org/2000/svg">
  <g transform="matrix(1 0 0 1 -414 -360 )">
    <path d="M 9.75260416666669 0.234375  C 9.91753472222223 0.390625  10 0.575657894736821  10 0.78947368421052  L 10 14.2105263157895  C 10 14.4243421052632  9.91753472222223 14.609375  9.75260416666669 14.765625  C 9.58767361111109 14.921875  9.39236111111109 15  9.16666666666669 15  C 8.94097222222223 15  8.74565972222223 14.921875  8.58072916666669 14.765625  L 4.24479166666669 10.6578947368421  L 0.833333333333314 10.6578947368421  C 0.607638888888914 10.6578947368421  0.412326388888914 10.5797697368421  0.247395833333314 10.4235197368421  C 0.0824652777777715 10.2672697368421  0 10.0822368421053  0 9.86842105263156  L 0 5.13157894736844  C 0 4.91776315789474  0.0824652777777715 4.73273026315786  0.247395833333314 4.57648026315792  C 0.412326388888914 4.42023026315792  0.607638888888914 4.34210526315792  0.833333333333314 4.34210526315792  L 4.24479166666669 4.34210526315792  L 8.58072916666669 0.234375  C 8.74565972222223 0.078125  8.94097222222223 0  9.16666666666669 0  C 9.39236111111109 0  9.58767361111109 0.078125  9.75260416666669 0.234375  Z M 14.4466145833333 5.74835526315792  C 14.8155381944445 6.2911184210526  15 6.875  15 7.5  C 15 8.125  14.8155381944445 8.70682565789474  14.4466145833333 9.24547697368422  C 14.0776909722222 9.7841282894737  13.5894097222222 10.1685855263158  12.9817708333333 10.3988486842105  C 12.8949652777778 10.4399671052632  12.7864583333333 10.4605263157895  12.65625 10.4605263157895  C 12.4305555555555 10.4605263157895  12.2352430555555 10.3844572368421  12.0703125 10.2323190789474  C 11.9053819444445 10.0801809210527  11.8229166666667 9.89309210526318  11.8229166666667 9.67105263157896  C 11.8229166666667 9.49835526315792  11.875 9.35238486842104  11.9791666666667 9.23314144736844  C 12.0833333333333 9.11389802631578  12.2092013888889 9.01110197368422  12.3567708333333 8.9247532894737  C 12.5043402777778 8.83840460526318  12.6519097222222 8.74383223684208  12.7994791666667 8.64103618421052  C 12.9470486111111 8.53824013157896  13.0729166666667 8.39021381578948  13.1770833333333 8.19695723684208  C 13.28125 8.00370065789474  13.3333333333333 7.7713815789474  13.3333333333333 7.5  C 13.3333333333333 7.2286184210526  13.28125 6.99629934210526  13.1770833333333 6.80304276315792  C 13.0729166666667 6.60978618421052  12.9470486111111 6.46175986842104  12.7994791666667 6.35896381578948  C 12.6519097222222 6.25616776315792  12.5043402777778 6.16159539473682  12.3567708333333 6.0752467105263  C 12.2092013888889 5.98889802631578  12.0833333333333 5.88610197368422  11.9791666666667 5.76685855263156  C 11.875 5.64761513157896  11.8229166666667 5.50164473684208  11.8229166666667 5.32894736842104  C 11.8229166666667 5.10690789473682  11.9053819444445 4.91981907894734  12.0703125 4.7676809210526  C 12.2352430555555 4.61554276315792  12.4305555555555 4.53947368421052  12.65625 4.53947368421052  C 12.7864583333333 4.53947368421052  12.8949652777778 4.56003289473682  12.9817708333333 4.60115131578948  C 13.5894097222222 4.8231907894737  14.0776909722222 5.20559210526318  14.4466145833333 5.74835526315792  Z " fill-rule="nonzero" fill="#000000" stroke="none" transform="matrix(1 0 0 1 414 360 )" />
  </g>
</svg>